<?xml version="1.0" standalone="no"?>
<!DOCTYPE svg PUBLIC "-//W3C//DTD SVG 20010904//EN"
 "http://www.w3.org/TR/2001/REC-SVG-20010904/DTD/svg10.dtd">
<svg version="1.0" xmlns="http://www.w3.org/2000/svg"
 width="720.000000pt" height="720.000000pt" viewBox="0 0 720.000000 720.000000"
 preserveAspectRatio="xMidYMid meet">
<metadata>
Created by potrace 1.11, written by Peter Selinger 2001-2013
</metadata>
<g transform="translate(0.000000,720.000000) scale(0.100000,-0.100000)"
fill="#000000" stroke="none">
<path d="M3389 7196 c-2 -2 -42 -6 -89 -10 -47 -3 -96 -8 -110 -10 -14 -3 -43
-7 -65 -10 -69 -9 -119 -16 -141 -21 -12 -3 -39 -7 -60 -11 -51 -8 -277 -65
-386 -98 -151 -45 -348 -125 -523 -211 -165 -81 -407 -219 -413 -236 -2 -5 -8
-9 -13 -9 -20 0 -285 -203 -396 -304 -57 -51 -228 -221 -268 -267 -59 -67
-132 -155 -181 -219 -56 -72 -231 -338 -254 -385 -8 -16 -18 -32 -22 -35 -12
-9 -173 -348 -202 -425 -15 -38 -31 -79 -36 -90 -46 -99 -155 -501 -176 -645
-3 -19 -9 -57 -14 -85 -25 -138 -35 -294 -35 -525 0 -289 13 -418 67 -700 94
-489 322 -1009 632 -1435 28 -38 55 -75 61 -81 5 -6 21 -26 35 -44 81 -109
290 -326 431 -449 287 -249 557 -417 974 -607 93 -42 427 -154 460 -154 12 0
25 -4 30 -8 6 -5 35 -14 65 -21 30 -6 66 -14 80 -17 58 -13 226 -42 340 -58
198 -28 667 -29 830 -2 14 3 45 7 70 10 25 4 56 8 70 10 14 3 41 7 60 10 19 3
58 10 85 16 28 6 59 12 70 14 89 16 352 95 485 145 165 62 502 217 520 240 3
3 25 17 50 30 59 31 227 140 315 204 229 168 467 392 635 601 30 37 70 86 89
109 40 50 206 299 250 377 52 91 197 390 226 465 14 39 30 79 35 90 39 82 148
476 170 615 7 41 14 84 16 95 3 11 7 39 10 61 2 23 7 52 9 64 26 136 26 708 0
835 -2 11 -7 40 -10 65 -11 86 -17 125 -31 195 -21 105 -24 115 -41 180 -8 33
-17 71 -20 84 -2 14 -6 28 -9 33 -3 4 -7 16 -9 25 -7 38 -75 234 -121 348 -64
161 -198 425 -281 557 -64 102 -186 279 -208 302 -5 6 -22 27 -36 46 -15 19
-37 46 -49 60 -12 14 -45 52 -73 84 -100 115 -335 341 -401 385 -11 8 -43 34
-71 57 -201 168 -608 398 -920 519 -104 41 -337 115 -360 115 -12 0 -25 4 -30
8 -8 7 -71 24 -145 38 -8 2 -37 8 -65 13 -84 17 -227 40 -290 46 -33 4 -71 9
-85 12 -28 5 -526 14 -531 9z"/>
</g>
</svg>
